# xmcd
#
# Track frame offsets: 
#        150
#        22829
#        47013
#        66336
#        87548
#        102676
#        116251
#        135004
#        159987
#        180154
#        196427
#        217598
#        235175
#        252717
#
# Disc length: 3929 seconds
#
# Revision: 0
# Processed by: cddbd v1.5.2PL0 Copyright (c) Steve Scherf et al.
# Submitted via: ExactAudioCopy v0.95b4
#
DISCID=b10f570e
DTITLE=Nickel Creek - Reasons Why(The Very Best of)
DYEAR=2006
DGENRE=Bluegrass
TTITLE0=Lighthouse's Tale
TTITLE1=Out of the Woods
TTITLE2=When in Rome
TTITLE3=Helena
TTITLE4=Smoothie Song
TTITLE5=Somebody More Like You
TTITLE6=Reasons Why
TTITLE7=Can't Complain
TTITLE8=I Should Have Known Better
TTITLE9=This Side
TTITLE10=Jealous of the Moon
TTITLE11=When You Come Back Down
TTITLE12=You Don't Have to Move That Mountain(live)
TTITLE13=The Fox(Subterranean Homesick Blues Medley)
EXTD=
EXTT0=
EXTT1=
EXTT2=
EXTT3=
EXTT4=
EXTT5=
EXTT6=
EXTT7=
EXTT8=
EXTT9=
EXTT10=
EXTT11=
EXTT12=
EXTT13=
PLAYORDER=
